PathFileType	4	(X/Y/Z)	C:/Users/beibeiliu/ov580/test_trc/capture2\sequence.24_training_dense_right.trc
DataRate	CameraRate	NumFrames	NumMarkers	Units	OrigDataRate	OrigDataStartFrame	OrigNumFrames
120	120	14	19	mm	120	101	400
Frame#	Time	ThumbCMC			ThumbMCP			ThumbIP			ThumbTip			IndexMCP			IndexPIP			IndexTip			MiddleMCP			MiddlePIP			MiddleTip			RingMCP			RingPIP			RingTip			PinkyMCP			PinkyPIP			PinkyTip			BackHand1			BackHand2			BackHand3	
		X0	Y0	Z0	X1	Y1	Z1	X2	Y2	Z2	X3	Y3	Z3	X4	Y4	Z4	X5	Y5	Z5	X6	Y6	Z6	X7	Y7	Z7	X8	Y8	Z8	X9	Y9	Z9	X10	Y10	Z10	X11	Y11	Z11	X12	Y12	Z12	X13	Y13	Z13	X14	Y14	Z14	X15	Y15	Z15	X16	Y16	Z16	X17	Y17	Z17	X18	Y18	Z18	
100	0.833333	78.454	72.5762	22.5617	83.3285	34.6453	14.5017	97.1621	15.0429	-1.52066	123.419	19.9428	-16.1511	85.8173	65.2941	-50.1951	82.6529	50.0608	-71.8636	87.7118	38.3162	-89.1614	103.533	64.4604	-56.4406	103.579	48.8984	-78.6491	101.36	34.524	-99.3695	124.852	52.1816	-45.8967	118.944	20.5121	-41.5611	109.465	24.2551	-6.93412	138.622	44.8648	-24.9389	125.424	23.4469	-9.25651	114.593	42.1944	16.5842	125.397	92.58	-9.59734	130.557	107.578	16.0534	96.5789	103.866	0.296768	
101	0.841667	75.491	69.6492	18.9972	84.8562	35.0128	13.1502	96.7531	11.4164	-3.6661	119.668	11.6059	-14.1576	80.7797	60.0585	-52.7388	80.0568	44.6687	-69.6371	85.817	29.0807	-90.5391	102.489	59.0881	-58.7553	100.304	43.8043	-75.9458	99.2533	25.2702	-101.043	120.569	47.1425	-46.8459	117.565	17.177	-39.6423	107.193	20.9346	-7.42198	135.877	42.8444	-23.5918	123.446	21.8355	-5.59489	111.369	40.5712	17.4351	127.32	90.7862	-8.73653	126.667	105.776	15.9714	97.8665	101.053	-2.00921	
102	0.85	77.4302	70.1597	18.5004	80.3201	32.602	15.3083	94.2445	8.47892	-1.01053	117.699	10.7803	-9.17345	83.0278	56.1144	-51.0377	82.1788	38.6906	-68.4985	85.186	21.9455	-87.7119	102.805	54.8854	-57.2051	101.647	35.6703	-77.9033	101.858	14.7915	-100.239	123.274	42.9648	-44.4823	117.013	12.8223	-39.1182	106.764	16.298	-6.55464	134.597	35.0236	-23.6469	123.451	18.4978	-3.4624	112.61	38.7831	18.2713	125.828	85.8806	-15.6715	128.419	105.295	13.4589	98.3123	98.6941	-3.84073	
103	0.858333	72.7197	67.9351	20.0123	78.1846	31.5657	15.2814	92.0122	10.4086	0.378222	120.014	11.5462	-11.5947	84.5532	46.7242	-52.434	79.369	27.5663	-69.2152	80.8591	10.4634	-86.4035	103.982	46.2513	-55.9895	98.1016	25.9498	-75.01	96.6553	5.98558	-93.3371	121.118	34.6631	-45.0092	118.865	6.77882	-36.0725	109.103	9.1879	-3.57342	136.26	29.135	-21.4139	123.391	14.4017	-1.51672	111.069	36.0645	20.3259	127.184	82.3014	-15.7644	125.154	102.368	10.0519	92.2415	95.2787	-5.44277	
104	0.866667	76.0458	67.3605	20.1239	73.1476	29.8979	10.2149	90.0714	13.0344	-6.44385	114.842	15.3263	-12.6957	79.0479	40.9727	-49.0976	77.3841	18.8677	-66.2162	84.3487	-0.388263	-80.487	97.5959	37.2217	-55.8826	99.8275	16.7925	-70.1843	99.5855	-5.72186	-87.272	121.518	26.1744	-39.9987	114.989	-2.66643	-27.9222	111.217	-0.986975	5.95772	136.476	27.2841	-19.3903	124.972	11.4354	4.54355	109.431	37.8459	22.3184	125.146	80.2517	-14.5009	125.237	98.8275	10.13	95.5809	89.338	-4.4846	
105	0.875	74.0524	64.4101	18.933	72.8897	28.0784	11.3911	89.5418	7.99425	-6.59857	117.481	13.4212	-12.6591	79.5474	30.7388	-47.4466	77.5286	9.92406	-59.3551	81.7622	-9.98283	-72.4356	99.2776	27.7116	-51.1669	99.2617	7.86891	-62.5696	97.6297	-18.6074	-78.7773	118.407	16.116	-35.4347	113.562	-9.39031	-19.8479	107.291	-9.03492	9.99235	134.963	20.6891	-15.3085	120.867	8.75709	10.1365	111.412	33.7408	24.9517	124.467	71.5103	-16.1397	122.494	94.4431	6.64599	91.7724	82.455	-7.44319	
106	0.883333	70.4875	60.9298	21.3224	71.0696	24.7187	15.3769	89.3619	4.10214	-1.33976	114.427	6.30987	-5.19231	83.5814	22.1024	-42.5047	81.7851	2.02632	-52.5266	83.8045	-22.7841	-65.5676	102.714	17.5624	-46.6781	100.648	-5.10093	-58.5536	98.5293	-33.4459	-71.4622	119.138	9.49655	-30.4174	115.189	-15.1326	-14.914	105.173	-13.0568	15.1834	137.106	14.8888	-8.86769	123.355	4.99022	18.9787	115.687	31.0215	30.7151	129.734	65.2546	-14.9822	128.368	89.38	7.91775	94.5408	77.1381	-8.47607	
107	0.891667	72.3368	57.1308	23.3717	75.5429	21.7433	20.8873	90.6404	-2.06934	7.7811	116.782	-2.46538	2.59524	82.829	15.8722	-38.9744	78.413	-9.1556	-49.0251	83.1022	-35.9991	-57.0425	102.078	9.15579	-43.4583	100.074	-14.1417	-51.2484	102.967	-40.9682	-58.7549	120.154	3.69345	-25.4801	117.618	-23.2954	-6.26298	105.734	-14.6081	20.6914	136.303	5.30299	-2.32504	123.633	-2.27898	21.8433	111.523	28.5343	31.3168	131.032	57.8003	-11.0616	127.063	81.756	5.86868	96.4727	72.8568	-6.20126	
108	0.9	76.2682	51.8274	25.1224	76.7281	12.0061	30.6857	89.5791	-14.2707	25.8731	118.614	-11.8735	16.7179	85.4564	9.51045	-34.4896	82.6047	-19.4205	-43.408	84.0761	-44.5605	-48.1582	103.563	6.69858	-36.3318	106.507	-22.2665	-45.3282	101.835	-51.8674	-47.6313	123.533	-4.29606	-23.6875	119.698	-27.2102	-3.41039	107.953	-9.54867	24.6913	134.957	-1.9648	2.83364	121.871	-5.86104	25.2446	112.398	26.4676	34.3911	132.187	52.2332	-7.28086	126.323	77.3277	6.58389	97.8713	67.9856	-7.13428	
109	0.908333	73.5861	46.834	26.5928	77.6384	11.1623	36.5743	93.1293	-18.1471	31.4981	120.22	-16.4124	22.5834	83.9253	4.45011	-30.3038	83.2069	-22.2263	-35.8852	87.3045	-51.5666	-40.7105	107.576	-3.6587	-35.2785	102.739	-29.9132	-39.6035	105.594	-59.9268	-35.7325	127.225	-7.73526	-19.5325	121.944	-30.3134	-1.36218	108.85	-11.7376	25.2418	134.446	-3.72805	3.34219	121.496	-7.16421	30.3119	111.748	22.6157	32.4016	129.744	48.1266	-6.80958	129.174	74.0108	7.3775	97.8734	62.9668	-3.08347	
110	0.916667	72.428	42.333	26.0073	76.413	7.23933	37.244	88.2461	-19.4158	33.1158	120.521	-19.7997	21.5488	88.4858	-0.0685057	-26.5838	86.0941	-30.2573	-31.2266	86.6098	-54.7802	-33.4237	103.508	-3.89354	-31.2229	105.258	-39.0952	-32.4036	103.818	-67.1363	-20.4252	125.595	-8.51501	-15.9096	115.848	-33.5495	3.99191	107.071	-17.9578	27.7135	135.931	-6.54254	6.10152	120.871	-10.1877	30.3233	113.68	22.3119	37.1024	130.266	46.0907	-4.69606	126.87	72.4522	11.6667	96.5567	59.1167	-5.06846	
111	0.925	74.7644	42.9945	27.8078	74.5386	9.52739	33.4095	84.8661	-16.5556	24.9958	115.797	-15.5319	16.2778	85.8604	-4.30724	-24.444	84.4615	-33.4097	-27.8688	86.0302	-59.5544	-25.6723	104.638	-8.07977	-27.9553	101.863	-39.0972	-26.807	100.668	-67.4378	-0.848079	123.773	-12.9749	-11.5762	115.739	-35.1327	8.60598	106.861	-21.7241	38.7971	134.639	-4.37315	7.15876	122.661	-10.5534	33.4889	114.219	18.8142	39.4687	123.73	41.867	-7.4071	127.425	69.6094	9.58387	93.5114	60.361	-1.3955	
112	0.933333	72.234	41.8839	29.3698	76.239	7.75797	33.6139	86.3619	-17.1742	27.9223	116.781	-17.2114	18.5507	81.2692	-5.81181	-21.393	84.6444	-36.3687	-24.005	88.0298	-58.7453	-19.6383	99.8292	-14.1965	-26.1151	103.579	-41.8329	-19.6742	96.9146	-58.8672	13.2857	118.496	-15.719	-10.6898	114.718	-37.062	12.9895	106.616	-21.4234	42.8202	135.103	-6.68662	9.44818	123.423	-10.5433	38.145	112.287	19.5714	39.398	124.936	41.0019	-8.48904	123.664	68.5163	8.33986	91.7425	55.5398	-0.187203	
113	0.941667	69.1579	41.309	32.5333	74.28	4.8813	46.9191	89.8961	-23.412	40.486	116.785	-24.6314	31.4642	83.4948	-6.53048	-21.3878	80.8871	-34.084	-22.4389	89.408	-63.6126	-13.9024	104.923	-12.7631	-22.0305	103.487	-44.8515	-7.54521	96.1879	-48.0277	22.1908	118.53	-15.8062	-9.99887	117.645	-36.0116	14.4991	102.454	-14.0905	38.8203	132.474	-9.97476	12.6553	116.777	-10.2572	37.3971	109.743	18.8546	42.4656	122.582	39.0969	-6.19834	120.851	69.3477	11.9639	90.2416	56.832	0.857849	
